#define db40o_width 40
#define db40o_height 40
static unsigned char db40o_bits[] = {
   0x08, 0x21, 0x00, 0x21, 0x84, 0x84, 0x10, 0x38, 0x10, 0x42, 0x42, 0x08,
   0x44, 0x08, 0x21, 0x21, 0x04, 0x45, 0x84, 0x10, 0x10, 0x82, 0x44, 0x42,
   0x08, 0x08, 0x41, 0x38, 0x20, 0x84, 0x84, 0x20, 0x28, 0x10, 0x42, 0x42,
   0x10, 0x44, 0x08, 0x21, 0x21, 0x08, 0x83, 0x81, 0x10, 0x10, 0x84, 0x00,
   0x42, 0x08, 0x08, 0x42, 0x00, 0x04, 0x84, 0x04, 0x21, 0x00, 0x08, 0x42,
   0x82, 0x10, 0x10, 0x10, 0x21, 0x41, 0x10, 0x10, 0x10, 0x10, 0x20, 0x08,
   0x10, 0x20, 0x08, 0x10, 0x08, 0xfe, 0x20, 0x84, 0x08, 0x09, 0x10, 0x20,
   0x42, 0x84, 0x08, 0x10, 0x20, 0x21, 0x42, 0x08, 0x10, 0x20, 0x10, 0x21,
   0x10, 0x00, 0x10, 0x08, 0x10, 0x10, 0x00, 0x10, 0x84, 0x08, 0x21, 0x00,
   0x08, 0x42, 0x84, 0x20, 0xff, 0x09, 0x21, 0x42, 0xc0, 0x00, 0x86, 0x10,
   0x21, 0x44, 0x00, 0x44, 0x08, 0x10, 0x22, 0x00, 0x08, 0x84, 0x08, 0xe1,
   0xff, 0x0f, 0x42, 0x84, 0x30, 0x00, 0x18, 0x21, 0x42, 0x70, 0x00, 0x1c,
   0x10, 0x21, 0x80, 0xff, 0x03, 0x08, 0x10, 0x00, 0x28, 0x00, 0x80, 0x08,
   0x00, 0xc6, 0x00, 0x40, 0xc4, 0xff, 0x01, 0xff, 0x07, 0x32, 0x00, 0x10,
   0x00, 0x18, 0x09, 0x00, 0x6c, 0x00, 0x20, 0xd0, 0xff, 0x83, 0xff, 0x97,
   0x20, 0x00, 0x00, 0x00, 0x48, 0x00, 0x00, 0x00, 0x00, 0x20, 0x42, 0x08,
   0x21, 0x84, 0x10, 0x21, 0x84, 0x10, 0x42, 0x08};
