#define dn40o_width 40
#define dn40o_height 40
static unsigned char dn40o_bits[] = {
   0x08, 0x21, 0x08, 0x21, 0x84, 0x84, 0x00, 0x80, 0x10, 0x42, 0x42, 0x08,
   0x0c, 0x08, 0x21, 0x21, 0x38, 0x0c, 0x84, 0x10, 0x10, 0x48, 0x12, 0x42,
   0x08, 0x08, 0x89, 0x13, 0x00, 0x84, 0x84, 0x90, 0xd2, 0x01, 0x42, 0x42,
   0x48, 0x00, 0x0c, 0x21, 0x21, 0x04, 0x00, 0x30, 0x10, 0x10, 0x04, 0x00,
   0x60, 0x08, 0x08, 0x62, 0x00, 0xc0, 0x80, 0x04, 0x32, 0x00, 0x80, 0x41,
   0x02, 0x1a, 0x00, 0x80, 0x21, 0x01, 0x0a, 0x40, 0x00, 0x03, 0x20, 0x01,
   0x40, 0x00, 0x03, 0x10, 0x01, 0x40, 0x00, 0x86, 0x88, 0x00, 0x40, 0x00,
   0x46, 0x44, 0x00, 0x20, 0x00, 0x2c, 0x42, 0x00, 0x20, 0x00, 0x0c, 0x21,
   0x00, 0x30, 0x00, 0x0c, 0x20, 0x00, 0x24, 0x00, 0x88, 0xd0, 0x00, 0x23,
   0x00, 0x58, 0xd0, 0xc0, 0x20, 0x00, 0x18, 0x52, 0x20, 0x10, 0x00, 0x18,
   0x11, 0x12, 0x10, 0x00, 0x18, 0x20, 0x0a, 0x08, 0x00, 0x98, 0xc0, 0x05,
   0x04, 0x00, 0x10, 0x04, 0x02, 0x02, 0x00, 0x30, 0x02, 0x00, 0x01, 0x00,
   0x30, 0x21, 0x80, 0x00, 0x00, 0x30, 0x10, 0x82, 0x00, 0x00, 0xb0, 0x08,
   0x41, 0x00, 0x00, 0x30, 0x84, 0x40, 0x00, 0x00, 0x30, 0x42, 0x20, 0x00,
   0x00, 0x30, 0x21, 0x24, 0x00, 0x00, 0x30, 0x10, 0xe2, 0xff, 0xff, 0xbf,
   0x08, 0x01, 0x00, 0x00, 0x00, 0x84, 0x10, 0x42, 0x08, 0x21, 0x42, 0x08,
   0x21, 0x84, 0x10, 0x21, 0x84, 0x10, 0x42, 0x08};
