#define p40od_width 40
#define p40od_height 40
static unsigned char p40od_bits[] = {
   0x08, 0x21, 0x08, 0x21, 0x84, 0x84, 0x10, 0x84, 0x10, 0x42, 0x42, 0x08,
   0x02, 0x08, 0x21, 0x21, 0x04, 0x00, 0x84, 0x10, 0x10, 0x02, 0x7c, 0x40,
   0x08, 0x08, 0x41, 0x82, 0x20, 0x84, 0x84, 0x20, 0x01, 0x11, 0x42, 0x42,
   0x10, 0x01, 0x09, 0x21, 0x21, 0x08, 0x01, 0x81, 0x10, 0x10, 0x04, 0x81,
   0x40, 0x08, 0x08, 0x02, 0xc6, 0x20, 0x84, 0x04, 0x81, 0x03, 0x03, 0x42,
   0x82, 0x40, 0x00, 0x04, 0x21, 0x41, 0x20, 0x00, 0x88, 0x10, 0x20, 0x24,
   0x00, 0x48, 0x08, 0x10, 0x22, 0x00, 0x28, 0x84, 0x08, 0x21, 0x00, 0x08,
   0x42, 0x84, 0x20, 0x00, 0x08, 0x21, 0x42, 0x20, 0x00, 0x88, 0x10, 0x21,
   0x44, 0x00, 0x44, 0x08, 0x10, 0x82, 0x00, 0x22, 0x84, 0x08, 0x01, 0x83,
   0x01, 0x42, 0x84, 0xc0, 0x00, 0x06, 0x21, 0x42, 0x20, 0x00, 0x88, 0x10,
   0x21, 0x10, 0x00, 0x10, 0x08, 0x10, 0x08, 0x00, 0x20, 0x84, 0x08, 0x09,
   0x00, 0x20, 0x42, 0x84, 0x04, 0x00, 0x40, 0x20, 0x42, 0x04, 0x00, 0x40,
   0x10, 0x21, 0x04, 0x00, 0x40, 0x08, 0x10, 0x02, 0x00, 0x80, 0x84, 0x08,
   0x02, 0x00, 0x80, 0x40, 0x84, 0x02, 0x00, 0x80, 0x20, 0x42, 0x02, 0x00,
   0x80, 0x10, 0x21, 0xfe, 0xff, 0xff, 0x08, 0x10, 0x00, 0x00, 0x00, 0x84,
   0x08, 0x21, 0x84, 0x10, 0x42, 0x84, 0x10, 0x42, 0x08, 0x21, 0x42, 0x08,
   0x21, 0x84, 0x10, 0x21, 0x84, 0x10, 0x42, 0x08};
