#define dq40o_width 40
#define dq40o_height 40
static unsigned char dq40o_bits[] = {
   0x08, 0x21, 0x08, 0x21, 0x84, 0x84, 0x10, 0x00, 0x10, 0x42, 0x42, 0x00,
   0x38, 0x00, 0x21, 0x21, 0x38, 0x44, 0x38, 0x10, 0x00, 0x44, 0x44, 0x44,
   0x00, 0x00, 0x44, 0x44, 0x44, 0x80, 0x18, 0x28, 0x38, 0x28, 0x30, 0x24,
   0x10, 0x10, 0x10, 0x48, 0x25, 0x10, 0x10, 0x10, 0x48, 0x24, 0x30, 0x28,
   0x18, 0x48, 0x18, 0x30, 0x28, 0x18, 0x30, 0x20, 0x30, 0x28, 0x18, 0x08,
   0x22, 0x50, 0x28, 0x14, 0x08, 0x61, 0x50, 0x28, 0x14, 0x0c, 0xa0, 0x48,
   0x44, 0x14, 0x0a, 0xa0, 0x88, 0x44, 0x22, 0x8a, 0x20, 0x89, 0x44, 0x22,
   0x49, 0x24, 0x89, 0x44, 0x22, 0x29, 0x42, 0x0a, 0x45, 0xa1, 0x04, 0x41,
   0x0c, 0x83, 0x61, 0x04, 0x40, 0x0c, 0x83, 0x61, 0x84, 0x40, 0xfa, 0xba,
   0xbe, 0x44, 0xc4, 0x0d, 0xc7, 0x41, 0x27, 0x82, 0x00, 0x00, 0x00, 0x02,
   0x81, 0x00, 0x00, 0x00, 0x02, 0x10, 0xc1, 0xff, 0x07, 0x81, 0x08, 0x3d,
   0x00, 0x78, 0x41, 0x04, 0x02, 0x00, 0x80, 0x20, 0x42, 0x02, 0x00, 0x80,
   0x10, 0x21, 0xc2, 0xff, 0x87, 0x08, 0x10, 0x3c, 0x00, 0x78, 0x84, 0x08,
   0x02, 0x00, 0x80, 0x40, 0x04, 0xe1, 0xff, 0x0f, 0x21, 0x02, 0x1f, 0x00,
   0xf0, 0x11, 0x81, 0x00, 0x00, 0x00, 0x02, 0x10, 0x3f, 0x00, 0xf8, 0x81,
   0x08, 0xc0, 0xff, 0x07, 0x40, 0x84, 0x10, 0x00, 0x00, 0x20, 0x42, 0x08,
   0x21, 0x84, 0x10, 0x21, 0x84, 0x10, 0x42, 0x08};
