#define dr40o_width 40
#define dr40o_height 40
static unsigned char dr40o_bits[] = {
   0x08, 0x21, 0x08, 0x21, 0x84, 0x84, 0x10, 0x84, 0x10, 0x42, 0x42, 0x00,
   0x00, 0x00, 0x20, 0x21, 0x3e, 0x7c, 0xf8, 0x10, 0x10, 0x22, 0x44, 0x88,
   0x08, 0x08, 0x22, 0x44, 0x88, 0x84, 0x84, 0xe2, 0xc7, 0x8f, 0x40, 0x42,
   0x02, 0x00, 0x80, 0x20, 0x21, 0x02, 0x00, 0x80, 0x10, 0x10, 0xfe, 0xff,
   0xff, 0x08, 0x08, 0x08, 0x00, 0x30, 0x84, 0x04, 0x30, 0x00, 0x08, 0x42,
   0x82, 0xe0, 0xff, 0x0f, 0x21, 0x41, 0x20, 0x00, 0x88, 0x10, 0x20, 0x24,
   0x00, 0x48, 0x08, 0x10, 0x22, 0x00, 0x08, 0x84, 0x08, 0x21, 0x00, 0x08,
   0x42, 0x84, 0x20, 0x00, 0x08, 0x21, 0x42, 0x20, 0x00, 0x88, 0x10, 0x21,
   0x24, 0x00, 0x48, 0x08, 0x10, 0x22, 0x00, 0x08, 0x84, 0x08, 0x21, 0x00,
   0x08, 0x42, 0x84, 0x20, 0x00, 0x08, 0x21, 0x42, 0x20, 0x00, 0x88, 0x10,
   0x21, 0x20, 0x00, 0x08, 0x08, 0x10, 0xf0, 0xff, 0x1f, 0x84, 0x08, 0x08,
   0x00, 0x60, 0x42, 0x04, 0x04, 0x00, 0x80, 0x20, 0x42, 0xfe, 0xff, 0xff,
   0x10, 0x21, 0x04, 0x00, 0x80, 0x08, 0x10, 0x04, 0x00, 0x80, 0x80, 0x88,
   0xff, 0xff, 0xff, 0x43, 0x84, 0x00, 0x00, 0x00, 0x22, 0x82, 0x00, 0x00,
   0x00, 0x12, 0x81, 0xff, 0xff, 0xff, 0x03, 0x10, 0x00, 0x00, 0x00, 0x80,
   0x08, 0x00, 0x00, 0x00, 0x40, 0x84, 0x10, 0x42, 0x08, 0x21, 0x42, 0x08,
   0x21, 0x84, 0x10, 0x21, 0x84, 0x10, 0x42, 0x08};
